<?xml version="1.0" standalone="no"?>
<!DOCTYPE svg PUBLIC "-//W3C//DTD SVG 20010904//EN"
 "http://www.w3.org/TR/2001/REC-SVG-20010904/DTD/svg10.dtd">
<svg version="1.0" xmlns="http://www.w3.org/2000/svg"
 width="360.000000pt" height="360.000000pt" viewBox="0 0 360.000000 360.000000"
 preserveAspectRatio="xMidYMid meet">
<metadata>
Created by potrace 1.14, written by Peter Selinger 2001-2017
</metadata>
<g transform="translate(0.000000,360.000000) scale(0.100000,-0.100000)"
fill="#000000" stroke="none">
<path d="M2990 3312 c-19 -15 -22 -27 -22 -71 2 -62 8 -115 27 -229 13 -77 13
-85 -5 -125 -17 -36 -19 -62 -17 -192 l2 -150 -40 -20 c-22 -10 -65 -33 -95
-51 -30 -17 -93 -46 -140 -64 -47 -18 -93 -36 -103 -41 -46 -24 -135 -36 -193
-28 -32 5 -66 12 -74 16 -8 3 -19 7 -25 8 -11 1 -8 26 3 35 13 10 52 69 52 80
0 5 3 10 8 11 4 0 25 1 47 3 48 3 148 31 191 53 47 24 87 95 92 164 4 49 0 65
-24 110 -35 65 -50 81 -92 98 -30 13 -101 11 -159 -2 -28 -7 -34 2 -68 91 -32
87 -64 115 -152 136 -34 7 -64 12 -66 10 -2 -2 -1 13 3 33 12 74 -21 113 -76
90 -21 -9 -44 -58 -44 -94 0 -22 -25 -39 -35 -23 -3 5 -12 7 -19 4 -8 -3 -34
-7 -58 -9 -42 -2 -145 -26 -181 -40 -17 -7 -19 -3 -17 51 3 89 2 94 -26 105
-59 22 -86 -12 -90 -111 -3 -84 -1 -79 -21 -78 -10 1 -41 -2 -70 -6 l-51 -7
-11 34 c-7 19 -14 44 -16 56 -9 48 -17 61 -40 67 -37 9 -59 1 -73 -29 -11 -23
-11 -36 2 -81 20 -67 20 -68 -1 -65 -10 1 -20 0 -23 -1 -3 -1 -16 -3 -30 -5
-32 -6 -64 -13 -67 -15 -2 -2 -7 -3 -12 -4 -19 -2 -68 -55 -115 -124 -47 -68
-51 -71 -80 -66 -58 11 -106 5 -134 -15 -41 -29 -89 -125 -97 -196 -4 -33 -9
-67 -10 -76 -10 -56 105 -187 184 -209 55 -15 83 -12 134 14 26 13 47 21 47
17 0 -3 14 -21 32 -40 l31 -33 -24 -19 c-13 -11 -44 -31 -69 -45 -64 -38 -98
-72 -126 -125 -13 -26 -29 -53 -37 -60 -39 -41 -73 -148 -83 -264 -21 -241 4
-335 126 -467 61 -67 158 -128 204 -128 31 0 97 -20 92 -28 -7 -11 -19 -113
-18 -152 1 -19 1 -78 1 -130 -1 -159 -1 -171 10 -239 21 -132 23 -123 -39
-135 -56 -12 -164 -70 -212 -116 -53 -50 -70 -151 -34 -205 32 -49 160 -109
261 -121 101 -13 279 -8 332 10 72 24 138 69 166 113 30 48 51 133 44 183 -3
21 -1 42 3 47 12 14 31 172 34 293 3 101 22 219 40 248 3 5 27 8 53 6 55 -3
76 -23 140 -129 20 -33 49 -76 65 -95 15 -19 28 -38 28 -42 0 -5 20 -34 45
-66 25 -32 47 -68 49 -79 7 -37 37 -117 51 -139 11 -16 12 -35 6 -73 -12 -77
22 -127 119 -173 42 -20 61 -22 255 -22 201 -1 213 0 270 24 87 35 131 67 169
119 72 100 78 148 28 230 -31 50 -118 108 -172 115 -19 2 -57 8 -85 12 -53 8
-135 9 -200 3 -38 -4 -39 -3 -41 28 -4 82 -18 152 -44 227 -16 44 -34 108 -40
141 -17 86 -67 233 -95 280 -15 27 -21 50 -18 68 3 15 1 33 -5 40 -12 15 -22
61 -36 171 -4 24 -9 39 -38 114 -19 49 -24 86 -20 151 2 18 6 22 19 16 30 -11
224 -28 296 -26 58 2 195 56 273 109 121 80 257 203 284 257 8 17 21 36 28 43
6 7 12 20 12 28 0 8 3 14 8 14 4 0 18 20 31 45 13 24 33 47 45 51 47 15 98 57
133 110 34 52 37 60 36 132 0 78 -6 93 -60 180 -51 82 -189 155 -277 147 l-34
-3 -11 62 c-6 33 -13 81 -15 106 -3 25 -8 67 -10 93 -6 50 -21 87 -36 87 -4 0
-15 2 -23 5 -7 3 -24 -3 -37 -13z"/>
</g>
</svg>
